<?xml version="1.0" encoding="UTF-8"?>
<svg width="634px" height="362px" viewBox="0 0 634 362" version="1.1" xmlns="http://www.w3.org/2000/svg" xmlns:xlink="http://www.w3.org/1999/xlink">
    <title>BB</title>
    <g id="Page-1" stroke="none" stroke-width="1" fill="none" fill-rule="evenodd">
        <rect id="Rectangle" stroke="#979797" fill="#FFFFFF" x="163" y="8.5" width="346" height="346"></rect>
        <rect id="Rectangle" stroke="#303030" stroke-width="10" x="162" y="5" width="353" height="352"></rect>
        <g id="Group" transform="translate(0.000000, 91.000000)" fill="#F7D2CD">
            <path d="M317.539,161.4675 L317.539,161.4675 C317.5,161.4935 317.474,161.4935 317.461,161.5325 L317.539,161.4675" id="Fill-6"></path>
            <path d="M124.5455,174.4675 C124.5455,174.4675 124.5325,174.4545 124.5195,174.4545 C124.5065,174.4805 124.4805,174.5065 124.4545,174.5455 L124.5455,174.4675" id="Fill-7"></path>
            <path d="M598.090445,93.0737943 C597.820931,92.6373404 597.718259,92.1110284 597.564251,91.623227 C597.512915,91.5975532 597.487247,91.5590426 597.435911,91.5333688 L597.166397,91.3921631 L597.512915,91.4691844 C597.525749,91.5205319 597.538583,91.5590426 597.564251,91.623227 C598.000607,91.8799645 598.475466,92.1238652 598.834818,92.4961348 C599.027328,92.6758511 598.93749,93.1251418 598.963158,93.4589007 C598.667976,93.3433688 598.218785,93.2791844 598.090445,93.0737943 Z M587.888499,150.918212 C587.862831,150.879701 587.837163,150.841191 587.811495,150.777006 C587.837163,150.751332 587.862831,150.712822 587.862831,150.687148 C587.323803,149.685871 586.694936,148.735942 586.309916,147.696155 C586.19441,147.413744 586.77194,146.60502 587.131293,146.527999 C587.593317,146.438141 588.350523,146.746226 588.607204,147.131332 C589.55692,148.504879 588.491697,149.57034 587.862831,150.687148 C587.888499,150.687148 587.888499,150.699985 587.888499,150.699985 C587.901333,150.777006 587.888499,150.854027 587.888499,150.918212 C588.260685,151.701262 588.65854,152.497148 589.30024,153.870694 C587.387973,152.946439 587.927001,151.82963 587.888499,150.918212 Z M575.736311,164.299388 C575.287121,164.568962 574.760926,164.710168 574.247566,164.889884 C574.247566,164.941231 574.234732,164.979742 574.234732,165.03109 C574.042222,165.27499 573.87538,165.518891 573.670036,165.762792 C573.836878,165.48038 573.978052,165.223643 574.13206,164.941231 C574.183396,164.928395 574.209064,164.902721 574.247566,164.889884 C574.32457,164.350735 574.311736,163.760239 574.594084,163.387969 C574.863599,163.028536 575.518133,162.990026 576.044327,162.861657 C576.069995,162.84882 576.301007,163.208253 576.249671,163.310948 C576.134165,163.67038 576.005825,164.106834 575.736311,164.299388 Z M573.506903,95.666844 C573.327227,95.3972695 572.993543,95.0635106 573.057713,94.8452837 C573.109049,94.601383 573.571073,94.4858511 573.853421,94.3189716 C574.033097,94.601383 574.366781,94.9351418 574.302611,95.1533688 C574.225607,95.3972695 573.789251,95.5128014 573.506903,95.666844 Z M565.928421,114.933469 C565.710243,114.651057 565.466397,114.368646 565.261053,114.073398 C565.517733,113.893681 565.902753,113.495738 566.043927,113.572759 C566.339109,113.688291 566.493117,114.099072 566.698462,114.39432 C566.454615,114.574036 566.185101,114.753752 565.928421,114.933469 Z M536.358866,157.315957 C536.140688,157.072057 535.755668,156.85383 535.717166,156.609929 C535.717166,156.391702 536.11502,156.134965 536.333198,155.903901 C536.615547,156.045106 536.923563,156.211986 537.205911,156.353191 C536.923563,156.674113 536.628381,156.995035 536.358866,157.315957 Z M250.057346,61.2181775 C250.00601,61.2566882 249.402812,60.6661917 249.454148,60.5378229 C249.646658,60.1398797 250.00601,59.8189577 250.314026,59.4466882 C250.673378,59.8446314 251.122569,60.2682485 251.071233,60.3324329 C250.801718,60.6790286 250.442366,60.9871137 250.057346,61.2181775 Z M237.782085,61.1543934 C237.307227,60.9618402 236.896538,60.6280814 236.48585,60.34567 C236.716862,60.1017693 236.922206,59.8707055 237.243057,59.5112729 C237.628077,59.8321948 237.987429,60.1531168 238.372449,60.4740388 C238.167105,60.7051026 237.846255,61.1800672 237.782085,61.1543934 Z M226.385486,51.6606989 C229.465648,50.158784 229.465648,50.158784 233.072004,51.006018 C230.056012,52.5464436 230.056012,52.5464436 226.385486,51.6606989 Z M212.633846,61.425646 C212.300162,61.4769935 211.825304,60.9121708 211.427449,60.6169226 C211.915142,60.1419581 212.338664,59.5257879 212.90336,59.2562134 C213.16004,59.1278446 213.737571,59.6926673 214.661619,60.2061425 C213.750405,60.783802 213.237045,61.2972772 212.633846,61.425646 Z M200.252814,61.0329433 C199.970466,60.8403901 199.559778,60.6735106 199.482774,60.4296099 C199.418604,60.211383 199.777956,59.9032979 199.970466,59.6337234 C200.291316,59.7492553 200.612166,59.8519504 200.945851,59.9803191 C200.702004,60.3269149 200.470992,60.6863475 200.252814,61.0329433 Z M190.909856,53.3564718 C189.600788,53.4720037 188.291719,53.6388831 186.98265,53.65172 C186.751638,53.6645569 186.251111,53.0355498 186.328115,52.8301597 C186.456456,52.368032 186.879978,51.5978193 187.149492,51.6106562 C188.432893,51.6876774 189.729128,51.9700888 190.999694,52.1754789 C190.98686,52.5605852 190.948358,52.9713654 190.909856,53.3564718 Z M124.462492,148.682433 C124.38946,149.951797 123.780863,151.105764 122.588013,151.182695 C119.496341,151.349379 116.952406,152.618743 114.700598,154.747171 C114.591051,154.862568 114.384128,154.939499 114.213721,154.990786 C113.130418,155.452373 112.047116,155.542126 111.170736,154.580487 C110.318701,153.657313 110.136122,152.554634 110.683859,151.387845 C111.000329,150.721108 111.365487,150.067194 111.718474,149.413279 C111.706302,149.413279 111.69413,149.426101 111.681958,149.438923 L111.438519,149.285061 L111.754989,149.374814 C111.730645,149.374814 111.730645,149.400457 111.718474,149.413279 C112.7044,149.233773 113.471232,148.695255 113.507748,147.605398 C113.568608,145.284642 114.822317,144.143497 116.769827,143.553691 C117.463628,143.348541 118.133084,142.976708 118.826885,142.771558 C122.06462,141.784275 124.267741,143.438294 124.462492,146.938661 C124.499007,147.515645 124.499007,148.10545 124.462492,148.682433 Z M102.985508,55.3792371 C104.923443,54.6732088 106.117006,55.7643435 107.708423,57.7283861 C105.180123,57.946613 103.588706,57.7668967 102.780164,55.8542017 C102.728828,55.7386698 102.870002,55.4177478 102.985508,55.3792371 Z M91.7463056,122.548926 C91.7206376,122.240841 91.5922975,121.817224 91.7206376,121.637508 C91.9003137,121.419281 92.375172,121.290912 92.6446862,121.38077 C92.8371963,121.432117 92.9142004,121.894245 93.1452125,122.382047 C92.6318522,122.433394 92.1826619,122.497578 91.7463056,122.548926 Z M48.5264448,45.5309954 C48.2055946,45.5309954 47.8847444,45.3897898 47.5767282,45.2742578 C47.5638942,45.2999316 47.5510602,45.3256054 47.5253922,45.3512791 C47.4868902,45.3127685 47.4355541,45.2870947 47.3842181,45.2485841 C46.8708578,45.2999316 46.3574975,45.3897898 45.8441371,45.4026266 C45.702963,45.4026266 45.587457,45.145889 45.4591169,45.0175203 C45.664461,44.8378039 45.9853112,44.4398607 46.1136513,44.4783713 C46.5628416,44.6837614 46.9735298,44.9661727 47.3842181,45.2485841 C47.4098861,45.2485841 47.4483881,45.2485841 47.4740562,45.2485841 C47.5125582,45.261421 47.5510602,45.2742578 47.5767282,45.2742578 C47.7949064,45.0046834 47.9617485,44.6837614 48.2312626,44.516882 C48.5007768,44.3500025 48.9628011,44.2601444 49.2194813,44.3756763 C49.4119914,44.4783713 49.5916675,45.1073784 49.4761614,45.2357472 C49.2836513,45.4411373 48.847295,45.5566692 48.5264448,45.5309954 Z M44.7842713,56.9080253 C45.2077935,57.0877416 45.5414777,57.4985217 45.913664,57.8194437 C45.6184818,58.0505076 45.3361336,58.2687345 44.8869433,58.6281671 C44.5660931,58.2558976 44.2452429,57.8707913 43.9243927,57.4985217 C44.2195749,57.2802948 44.6045951,56.8566778 44.7842713,56.9080253 Z M32.2977066,44.5531257 C32.1693665,44.5531257 31.8228483,43.9112817 31.9126863,43.7058916 C32.3618766,42.704615 33.2474232,42.5505725 34.1843058,42.922842 C34.4281519,43.025537 34.505156,43.4876647 34.8388402,44.1551824 C33.9147916,44.309225 33.0934151,44.5017782 32.2977066,44.5531257 Z M632.167586,58.130784 C630.887167,56.7335461 629.978069,54.9425413 629.09458,53.2531537 C626.597763,48.4390343 624.2674,43.5614041 621.73217,38.7853912 C621.027939,37.4516641 620.042016,36.1560436 618.940856,35.1525728 C616.943402,33.3488658 615.944675,31.1513918 615.509332,28.6109593 C615.368486,27.8615318 615.31727,27.0358913 615.07399,26.3245702 C614.113676,23.2887534 612.231459,21.3199183 608.825544,21.1420881 C604.561748,20.9261513 600.297953,20.6975124 595.995744,20.4942778 C591.335018,20.2529367 586.648684,19.7702546 581.987958,19.8337654 C577.890617,19.9099783 571.731801,14.8418157 570.23371,11.3868276 C568.876466,8.21128708 566.981446,6.34406926 563.741985,5.37870494 C561.488447,4.69278819 559.337343,3.79093468 556.930155,3.95606279 C554.663813,4.08308441 552.717576,3.33365685 551.001814,1.9110147 C550.284779,1.3394174 549.542136,0.793224436 549.042773,0.399457412 C546.994102,1.12348065 545.393578,2.10154713 543.741837,2.19046226 C539.849363,2.41910118 535.86726,2.68584658 532.064415,2.05073848 C528.223157,1.41563038 524.44592,1.03456551 520.56625,0.844033084 C515.111665,0.577287681 509.682687,0.399457412 504.215297,0.717011463 C501.334354,0.869437408 498.402194,0.526479033 495.495643,0.399457412 C492.192161,0.259733629 488.88868,-0.10862907 485.610807,0.0310947122 C479.375165,0.285137953 473.190741,1.02186335 466.942295,0.475670384 C462.870562,0.107307685 458.760417,0.0692011984 454.688684,0.653500653 C452.396733,0.983756867 450.015154,0.869437408 447.684791,0.793224436 C436.788423,0.38675525 425.90486,-0.324565825 415.034102,1.072672 C413.689661,1.23780011 412.306809,1.16158714 410.949564,1.1742893 C403.753609,1.21239578 396.506436,1.16158714 389.31048,1.32671524 C380.744476,1.50454551 372.191276,2.13965361 363.612467,2.10154713 C351.333247,2.01263199 339.054027,3.13042225 326.787612,2.31748388 C324.67492,2.1777601 322.498207,2.08884497 320.55197,3.39716766 C320.014194,3.74012603 319.130705,3.71472171 318.426474,3.70201955 C315.519923,3.61310441 312.626176,3.39716766 309.745232,3.35906117 C307.594128,3.34635901 305.443024,3.71472171 303.317528,3.62580658 C292.99735,3.20663523 282.677171,4.56576657 272.331384,3.74012603 C270.833294,3.62580658 269.258378,4.05768009 267.696267,4.14659522 C261.281366,4.51495792 254.892075,4.87061846 248.489979,5.13736386 C243.445127,5.34059845 238.361863,5.35330062 233.329816,5.59464169 C226.53079,5.89949358 219.731764,6.35677142 212.919934,6.69972979 C208.643334,6.92836871 204.35393,6.9664752 200.090134,7.19511411 C196.978715,7.37294438 193.867297,7.98264816 190.768682,7.98264816 C180.422895,7.98264816 170.217954,9.93878112 159.91058,10.6374 C155.249854,10.9549541 150.665954,11.7043816 145.992424,10.6628044 C143.521215,10.1166114 141.254873,10.5738892 140.717097,13.7113233 C140.614663,14.2194097 140.204929,14.8164113 139.782391,15.1085611 C137.33679,16.6836292 134.916798,18.3095059 132.368763,19.6940416 C129.257345,21.3580248 126.709311,20.3418518 124.622227,17.0900984 C123.46985,15.3117957 122.253452,13.5207908 120.806578,11.9584249 C118.732299,9.73554653 116.286699,7.95724384 112.829567,7.09349682 C112.765546,8.26209573 112.509462,9.06233194 112.727133,9.7101422 C114.071573,13.7367276 115.46723,17.7506108 116.965321,21.7136853 C118.168915,24.8765237 119.129229,27.9758512 116.529978,31.0243701 C115.134321,30.6941139 113.713056,30.3765599 112.278987,30.0590058 C112.291791,30.071708 112.278987,30.0844101 112.278987,30.0971123 C112.240574,30.147921 112.214966,30.1987296 112.189357,30.2368361 C112.240574,30.8719442 112.330203,31.5197545 112.304595,32.1421604 C112.291791,32.2564799 111.74121,32.345395 111.421106,32.3962036 C111.382693,32.3962036 111.19063,32.0659474 111.241847,31.9389258 C111.536343,31.3673285 111.869252,30.8084334 112.189357,30.2368361 C112.189357,30.1733253 112.189357,30.0971123 112.189357,30.0208993 C112.214966,30.0336015 112.240574,30.0463037 112.278987,30.0590058 C112.202161,26.9215718 113.610622,23.6698183 111.216239,20.7356189 C110.768092,20.1894259 111.216239,18.8556989 111.382693,17.9284411 C111.779623,15.4896259 111.049784,13.45728 109.282806,11.183593 C108.693813,12.1489573 108.271274,12.7332568 107.938366,13.3556627 C106.990855,15.260987 105.992128,17.140907 105.147052,19.09704 C103.700178,22.4758151 101.113731,23.5300945 97.6181869,23.0728167 C96.0816839,22.8695821 94.4299432,22.4758151 92.9958737,22.8187734 C83.6872263,25.0670561 74.0712782,24.7495021 64.711414,26.5024004 C62.8035894,26.8453588 60.8573523,26.9596783 58.9111151,27.1248064 C51.3822504,27.7853188 43.8277772,28.4458312 36.273304,29.0809393 C26.8110063,29.8811756 17.4767505,32.0659474 7.89921501,31.7483934 C6.74683775,31.7102869 5.59446049,32.0405431 4.46769161,32.2945863 C4.13478263,32.3707993 3.8658946,32.739162 3.48176884,33.0186096 C3.36653112,33.9077609 3.2384892,34.8350188 3.12325147,35.7622766 C2.7647341,35.9655112 2.4574335,36.2322566 2.11172032,36.3211717 C1.13860175,36.575215 0.10146221,36.816556 0.011832867,37.9851549 C-0.129013243,39.4586057 1.01055983,39.9285857 2.20134966,40.1953311 C5.59446049,40.9574609 9.0131797,41.6814841 12.4447031,42.3928052 C14.1860732,42.7484657 15.8762265,43.0660198 17.2206666,44.9459398 C15.8250097,46.139943 14.2244858,47.5879895 16.4011984,49.4043986 C18.3474355,49.5695267 20.2296517,49.7219527 22.0990637,49.8870808 C22.1118679,49.8616765 22.1118679,49.8489743 22.1246721,49.82357 C22.1374763,49.8362721 22.4447769,49.747357 22.4447769,49.747357 L22.2014972,49.899783 C22.1630847,49.899783 22.1246721,49.8870808 22.0990637,49.8870808 C21.7277422,50.7127213 21.3564206,51.551064 21.1259451,52.0464483 C21.5740919,54.0406878 24.391014,53.3928775 24.0709093,55.628458 C21.586896,57.7751234 19.0516661,55.7427775 16.0682894,55.4125213 C16.311569,56.9367807 16.4908277,58.1180818 16.7341074,59.6423413 C22.3551476,60.2012364 27.6944955,60.8490467 33.0466477,61.2428137 C36.0428286,61.4460483 36.5934088,60.5441948 36.3117166,57.0002915 C36.2861082,56.9875894 36.2476956,56.9875894 36.2092831,56.9748872 C36.2348915,56.9367807 36.2476956,56.9113764 36.273304,56.8605678 C35.0569058,55.4760321 33.8405076,54.0660921 32.1119417,52.0591505 C31.5229489,51.9194267 30.0888794,51.551064 28.6676141,51.157297 C28.8468728,50.5602954 28.8468728,50.0395067 29.0645441,49.899783 C31.5357531,48.3882257 34.199025,48.6803754 36.8494927,49.1757597 C38.3347789,49.4552073 38.8469466,50.8016365 38.206737,52.2750873 C37.5665274,53.7993467 36.9263178,55.3363083 36.273304,56.8605678 C36.2861082,56.8732699 36.2989124,56.8986743 36.3117166,56.9113764 C36.3117166,56.9494829 36.3117166,56.9621851 36.3117166,57.0002915 C37.0415555,57.2035261 37.9634573,57.2289305 38.3731915,57.6989105 C40.9596382,60.6458121 44.3271407,61.192005 47.886706,60.5695991 C50.1530479,60.1504277 51.5743132,61.0395791 52.9443617,62.5003277 C53.5973755,62.1954758 54.2759977,61.6492829 54.8777947,61.7000915 C57.1185283,61.9414326 58.2581013,60.404471 59.6025415,59.1596591 C59.5897373,59.1342548 59.5641289,59.1088505 59.5385205,59.0961483 L59.8714295,59.0326375 L59.6025415,59.1596591 C60.2811636,59.7312564 60.9597858,60.3028537 61.5615828,60.8109402 C65.64612,58.9818288 65.64612,58.918318 70.9342512,58.9564245 C73.3798519,58.9691267 74.1609076,57.4321651 74.7114878,55.5141386 C72.7780548,53.8120489 70.921447,51.944831 68.0148955,52.17347 L68.0661123,52.097257 C67.7588117,52.0464483 67.4387069,51.9956397 67.1186021,51.9194267 C67.4130985,52.021044 67.7075949,52.097257 68.0020913,52.17347 C67.0801895,53.037217 66.1454835,53.9263683 65.3004068,54.7266045 C61.4847577,52.7450673 61.4847577,52.7704716 56.2734516,52.64345 C55.3259414,52.6307478 54.365627,52.3004916 53.4821378,51.9575332 C52.3553689,51.551064 51.2029917,51.0683819 50.1914605,51.8813202 C49.5000342,52.4402154 49.1159084,53.3674732 48.4756988,54.294731 C47.1568671,53.7993467 45.8380353,53.4563883 44.685658,52.8212802 C43.5844975,52.1988743 43.0467215,51.1699992 43.7125395,50.1284219 C50.8444743,48.0960759 57.4386331,44.2346187 65.5308823,46.1780495 C64.4041134,46.7496468 63.6742745,47.1180095 62.842002,47.5371808 C64.2888757,49.0360359 65.9662248,49.5822289 67.7075949,49.2519727 C68.7447344,49.0487381 69.653832,48.1341824 70.6013422,47.5117765 C72.9829219,45.9240062 75.3516974,44.3235338 77.6180393,42.8119765 C80.6398286,43.2946587 83.4951634,43.7011279 86.3504981,44.2219165 C87.4644628,44.4124489 88.7192736,44.6029814 89.6027629,45.2380895 C90.8191611,46.1145387 91.8434964,47.3720527 92.7910066,48.5787581 C93.6873,49.6838462 95.2109989,50.3443586 95.620733,51.8686181 C92.5861395,53.3928775 90.5374689,51.8686181 88.8729239,50.3189543 C87.5925047,52.2750873 86.4913443,54.0025813 85.402988,55.704671 C85.3773796,55.6919689 85.3645754,55.6665645 85.3261628,55.6665645 C85.3261628,55.704671 85.3517712,55.7427775 85.338967,55.8062883 L85.4285963,55.704671 C86.8242532,57.0002915 88.1943018,56.5938224 89.7180006,55.857097 C90.9728114,55.2600953 91.9971467,55.9968207 92.5989437,57.1019088 C93.3415869,58.4610402 93.9305797,59.8963845 92.8934402,61.3825375 C92.4709018,61.5095591 92.0611677,61.8017088 91.7794755,61.6873893 C88.1174766,60.404471 85.006058,62.6527537 81.6641639,63.2497553 C81.2800382,63.3005639 80.8190873,64.088098 80.7550663,64.5707801 C80.665437,65.5107401 81.3952759,65.8536985 82.2531568,65.9172093 C82.4452196,65.9426136 82.6372825,65.891805 82.8293454,65.9045072 C86.9010784,66.3363807 88.5272107,67.7844271 88.5784275,71.5315649 C88.5912317,72.4207163 87.5925047,73.3225698 86.9907077,74.3514449 C84.3530442,71.2267131 84.3530442,71.1632022 81.0879753,71.2267131 C79.5770807,71.2521174 77.9893609,71.4426498 76.5552914,71.8999276 C75.0315926,72.395312 73.6231315,72.7001639 72.0226075,72.2936947 C71.1391183,72.0777579 70.0379578,72.1031622 69.2056853,72.4334185 C66.9265392,73.3479741 64.6473931,73.2844633 62.3426385,72.789079 C59.9610589,72.2809925 57.7075211,72.6239509 55.5436127,73.6401238 C54.1351516,74.2879341 52.8547324,75.1897876 51.4334671,75.8121936 C49.9353767,76.4854081 48.3348527,76.9299838 46.7087203,77.488879 C47.489776,78.4923498 48.3732653,79.1528622 48.552524,79.9785027 C48.8598246,81.3503362 47.617818,81.9854443 46.5422659,82.4173178 C44.9545461,83.1032346 43.2771969,83.5605124 41.6638688,84.1956205 C40.8315963,84.5131746 40.076149,84.9958567 39.2310723,85.4658367 C41.8303233,88.8319097 41.8943442,88.8700162 44.5320077,87.0282027 C44.41677,87.0027983 44.3271407,86.9646918 44.2247071,86.9519897 C44.3655532,86.9519897 44.4935952,86.9519897 44.6216371,86.9519897 C44.5832245,86.9900962 44.5576161,87.0027983 44.5320077,87.0282027 C44.5320077,87.0282027 44.5448119,87.0282027 44.5576161,87.0282027 C45.3386718,87.0917135 46.1197275,87.12982 46.9007832,87.1806286 C46.9007832,87.1552243 46.887979,87.12982 46.8751748,87.1044156 C46.952,87.0155005 47.0288251,86.9265854 47.0800419,86.8630746 C47.2080838,86.5201162 47.3233216,86.1771578 47.4385593,85.8596037 C47.4769719,86.0120297 47.6050138,86.2025621 47.5409928,86.2787751 C47.4001467,86.507414 47.2464964,86.65984 47.0800419,86.8630746 C47.0416293,86.9519897 47.0160209,87.0790113 46.9776084,87.1806286 C46.952,87.1806286 46.9263916,87.1806286 46.9007832,87.1806286 C46.9391958,87.5489913 46.9391958,87.917354 47.0672377,88.2476102 C48.0531605,90.9023621 47.6690347,93.1125383 45.3258676,94.9543518 C43.878994,96.0848442 43.546085,97.634508 43.5716934,99.5652366 C43.5973017,101.064092 40.8700089,101.686498 41.2413304,103.795057 C41.279743,103.972887 41.3565682,104.150717 41.5998478,104.81123 C43.5716934,105.192294 45.8124269,105.852807 48.0787689,106.030637 C49.5640551,106.157659 51.1645791,105.75119 52.624257,105.293912 C54.2503893,104.798527 54.4424522,102.550245 53.0083827,101.559476 C52.3937815,101.127603 51.5359007,101.025985 50.8828869,100.632218 C48.9110413,99.4128107 48.885433,97.2280388 50.8828869,95.9959291 C51.7023551,95.4878426 52.624257,95.1321821 53.558963,94.8527345 C55.1082702,94.3827545 56.1966265,95.0686712 56.1582139,96.8215696 C56.1198013,98.1807009 56.235039,99.1079588 57.6819127,99.4128107 C58.6678355,99.6033431 59.6921708,99.6795561 60.101905,98.4728507 C60.6652894,96.8088674 61.9969253,96.5929307 63.3925823,96.7961653 C65.3004068,97.1137193 67.1698188,97.7996361 69.0904476,98.0155728 C70.9982722,98.2315096 73.1493764,98.574468 74.8139213,97.9393599 C77.0802633,97.0629107 78.8728501,97.3169539 80.9215208,98.2569139 C83.2902963,99.362002 85.8511347,99.3238955 88.3863646,99.044448 C88.808903,98.9936393 89.4363084,98.3585312 89.4875251,97.9393599 C89.5515461,97.482082 89.141812,96.7453566 88.7320778,96.542122 C87.4132461,95.8816096 85.9919808,95.3989275 84.4170652,94.7765215 C85.7871137,93.5317096 86.87547,92.5663453 87.9510221,91.5882788 L87.9382179,91.5755767 C87.874197,91.5501724 87.8229802,91.5374702 87.7589592,91.5120659 C87.144358,91.5120659 86.5553652,91.5120659 85.9663724,91.5120659 C85.9919808,91.3342356 86.0175892,91.1564053 86.0431975,90.9785751 C86.606582,91.1564053 87.1827706,91.3469378 87.7589592,91.5120659 C87.8357844,91.5120659 87.9382179,91.5120659 88.0278473,91.5120659 C88.0022389,91.5374702 87.9766305,91.5501724 87.9510221,91.5882788 C91.2288952,93.8111572 94.4299432,96.1610572 97.8614666,98.1807009 C99.0138438,98.8666177 99.6028367,99.6414496 99.9229414,100.721133 C100.755214,103.566418 100.447913,106.068744 97.6309911,107.783535 C95.3646492,109.155369 94.6092019,111.187715 95.0573486,113.766254 C95.1469779,114.27434 94.8268731,114.845938 94.7756563,115.074576 C92.6501605,116.979901 90.6911192,118.554969 88.9497491,120.371378 C87.6309173,121.730509 87.3236167,123.38179 88.6936652,125.071178 C89.3722874,125.909521 90.4862521,126.722459 89.6411754,127.878356 C88.0022389,127.878356 86.4401275,127.713228 84.942037,127.929164 C82.8421496,128.246719 80.7678705,128.767507 78.7448082,129.402615 C77.8869274,129.631254 76.7985711,130.215554 76.5168788,130.926875 C75.9534944,132.31141 77.3363471,132.844901 78.2838573,133.480009 C79.5770807,134.331054 80.9855418,135.055077 82.0867023,136.083953 C82.8421496,136.807976 83.1750586,137.976575 83.8280724,139.170578 C82.265961,140.135942 80.934325,140.88537 79.7051226,141.761819 C77.2467178,143.489313 75.4925435,145.674085 75.0443968,148.798817 C74.7370962,151.136015 75.1340261,153.041339 77.3363471,154.260746 C79.4234304,155.416643 81.2544298,156.9282 82.2403526,159.087568 C84.9676454,165.057584 87.541288,171.116515 84.2634149,177.60732 C88.475994,181.176628 88.475994,181.176628 91.3569371,180.884478 C91.0240281,179.855603 90.6911192,178.877537 90.3710144,177.937577 C92.0483635,176.768978 93.482433,176.756275 94.9165025,177.797853 C96.9651731,179.296708 99.1162774,180.503413 101.958808,180.274774 C101.766745,177.645427 101.587486,175.19391 101.44664,173.225074 C103.341661,170.925983 104.916576,169.020659 106.491492,167.102632 C106.850009,166.658057 107.221331,166.200779 107.643869,165.807012 C108.783442,164.778137 110.4864,164.828945 111.933273,165.908629 C113.085651,166.759674 113.034434,167.864762 112.560679,169.020659 C111.971686,170.430599 111.177826,171.802432 110.716875,173.263181 C109.961428,175.638485 110.64005,176.794382 113.597818,178.623493 C114.045965,178.013789 114.51972,177.442192 114.878237,176.819786 C116.747649,173.428309 119.538963,171.865943 123.495459,172.018369 C124.967941,172.069178 126.478835,171.446772 127.976926,171.116515 C130.614589,170.544918 133.290665,169.401724 135.90272,169.528745 C138.52758,169.668469 140.857943,169.414426 143.20111,168.258529 C144.315074,168.893637 145.262585,169.579554 146.312528,170.011427 C148.412416,170.913281 150.307436,169.808193 150.512303,167.547208 C150.614737,166.404013 150.435478,165.235414 150.448282,164.09222 C150.461086,162.402832 151.088492,161.119914 152.829862,160.497508 C153.89261,160.103741 154.929749,159.595655 155.915672,159.011355 C157.388154,158.122204 158.822224,158.363545 160.281902,158.947844 C160.230685,159.024057 160.192272,159.087568 160.15386,159.151079 C160.217881,159.10027 160.30751,159.036759 160.384335,158.973249 L160.30751,158.897036 C161.267824,159.036759 162.240943,159.367016 163.175649,159.290803 C167.874787,158.884333 172.484296,159.68457 177.145022,159.964017 C183.905635,160.383189 190.679053,161.475574 197.439666,159.697272 C198.899344,159.341611 200.602302,159.405122 202.061979,159.773485 C205.787999,160.649934 209.347565,160.357784 212.919934,159.21459 C213.649773,158.985951 214.456437,159.036759 215.237493,158.947844 C222.971225,158.223821 230.500089,155.975538 238.361863,156.343901 C238.733185,156.356603 239.142919,156.254986 239.51424,156.153369 C242.612855,155.264217 245.660252,156.216879 248.746063,156.28039 C251.691027,156.343901 254.700012,155.060983 257.696193,154.387768 C257.875451,154.336959 258.093123,154.387768 258.285186,154.387768 C265.993309,153.701851 273.842279,155.010174 281.524794,153.384297 C282.267437,153.231871 283.061297,153.485915 283.855157,153.447808 C289.847518,153.181063 295.891097,154.133725 301.870654,152.787296 C303.112661,152.507848 304.521122,152.888913 306.096038,152.952424 C306.160059,153.917788 306.198471,154.629109 306.275296,155.365835 C306.467359,157.029818 307.606932,156.966307 308.848939,156.724966 C310.142162,154.591003 312.088399,153.549425 314.598021,153.511319 C315.558335,153.498617 316.544258,153.422404 317.504573,153.549425 C320.936096,154.019405 324.52127,153.333489 327.837555,154.883152 C331.550771,156.623349 335.05912,153.676447 338.733923,154.324257 C339.118048,154.387768 339.502174,154.425875 339.8863,154.425875 C341.832537,154.463981 343.778774,154.387768 345.712207,154.463981 C348.234633,154.540194 350.744255,154.629109 353.253876,154.87045 C356.915875,155.213409 360.56507,155.962836 364.227068,156.064453 C370.424297,156.204177 376.63433,157.144137 382.857168,156.127964 C384.368062,155.899325 385.968586,156.166071 387.530698,156.28039 C393.919989,156.75037 400.296477,157.245755 406.685768,157.703032 C407.671691,157.779245 408.64481,157.588713 409.617928,157.601415 C411.359298,157.626819 413.100669,157.703032 414.842039,157.753841 C416.570605,157.779245 418.324779,157.791947 420.066149,157.830054 C421.986778,157.855458 423.945819,157.677628 425.828035,157.98248 C429.349188,158.528673 432.767907,158.312736 436.276256,158.033289 C440.911373,157.652224 445.559295,156.407412 450.194412,157.423585 C454.304558,158.300034 458.31227,158.147608 462.307178,157.04252 C464.407065,156.445518 466.46854,156.267688 468.619644,156.979009 C470.693923,157.677628 473.062699,157.944373 474.855286,156.75037 C478.017921,154.641811 481.218969,155.289622 484.432821,155.937432 C487.262547,156.521731 490.053861,157.360074 492.755546,158.045991 C494.817021,155.302324 494.957867,155.010174 497.531509,155.569069 C501.219117,156.305795 504.829899,156.191475 508.504702,155.645282 C511.564903,155.200706 514.650714,154.87045 517.762132,154.654513 C520.476621,154.463981 523.203914,154.387768 525.918402,154.463981 C526.840304,154.463981 527.787814,154.946663 528.632891,155.391239 C530.00294,156.115262 530.207807,157.791947 529.081038,158.757312 C528.504849,159.252696 527.736598,159.544846 527.134801,160.014826 C525.956815,160.929382 525.63671,162.199598 525.713535,163.634942 C525.764752,164.879754 526.840304,165.756203 528.107919,165.514862 C528.671304,165.413245 529.465164,165.362436 529.708443,164.994073 C531.552247,162.148789 534.138694,163.03794 536.520273,163.698453 C537.954343,164.117624 539.337195,165.006776 540.502377,165.984842 C542.538243,167.686932 544.586914,168.61419 547.391032,168.334742 C549.029969,168.169614 550.758535,168.931744 552.461492,169.300106 L552.359059,169.389021 C552.397471,169.414426 552.461492,169.452532 552.499905,169.477937 C552.499905,169.43983 552.4871,169.389021 552.461492,169.338213 C553.972387,168.601487 555.457673,167.864762 556.968568,167.140739 C557.00698,166.759674 557.032589,166.378609 557.083805,165.997544 C557.045393,165.984842 557.019784,165.984842 556.994176,165.97214 C556.968568,165.946736 556.968568,165.934033 556.968568,165.895927 C555.291218,165.934033 553.613869,165.984842 551.923716,165.946736 C551.718849,165.934033 551.462765,165.413245 551.334723,165.095691 C551.257898,164.968669 551.360332,164.689221 551.462765,164.613009 C553.024877,163.634942 555.201589,163.723857 556.661267,164.892456 C556.891742,165.070286 556.878938,165.540266 556.968568,165.895927 C557.00698,165.895927 557.045393,165.895927 557.083805,165.895927 C557.083805,165.934033 557.083805,165.97214 557.083805,165.997544 C557.813644,166.365907 558.569092,166.746972 559.29893,167.102632 C558.543483,167.115334 557.775232,167.115334 556.994176,167.115334 C556.968568,167.128037 556.968568,167.128037 556.968568,167.140739 C556.968568,167.153441 556.968568,167.166143 556.968568,167.191547 C557.80084,167.166143 558.620308,167.153441 559.426972,167.153441 L559.414168,167.102632 C560.310462,167.255058 561.168342,167.38208 562.167069,167.534506 C562.000615,166.048353 561.898181,164.968669 561.77014,163.749261 C564.36939,162.822004 566.802187,162.68228 569.52948,162.898217 C568.927683,163.952496 568.377102,164.727328 568.018585,165.578373 C567.007054,167.915571 568.108214,169.262 570.771486,168.893637 C571.27085,168.817424 571.770213,168.49987 572.256773,168.271231 L572.051906,168.169614 L572.359206,168.220423 C572.320794,168.233125 572.282381,168.245827 572.256773,168.271231 L572.307989,168.296636 C573.71645,168.893637 575.112107,169.655767 576.610198,170.036832 C578.710085,170.570323 580.451455,169.14768 580.579497,166.937504 C580.643518,165.832416 580.425847,164.701924 580.285001,162.694982 C583.396419,163.774666 585.713978,162.555258 588.2236,161.602596 C590.694809,160.675338 593.575752,160.853169 594.971409,157.741139 C594.433633,157.144137 593.934269,156.57254 593.422102,156.000943 C590.144229,152.368124 590.259466,148.519369 593.793423,145.496255 C594.100724,145.254914 594.48485,145.11519 594.779346,144.873849 C597.980394,142.155586 598.12124,140.30107 595.355535,137.100125 C594.497654,136.122059 592.858717,135.296418 594.062311,133.810266 C594.997017,132.616262 596.175003,133.924585 597.250555,134.102415 C597.673093,134.165926 598.479757,133.759457 598.556583,133.429201 C598.659016,132.984625 598.36452,132.2479 597.980394,131.95575 C596.239024,130.54581 594.075115,130.418788 591.94962,130.063128 C589.926557,129.758276 589.375977,127.967271 590.592375,126.087351 C590.963697,125.515754 591.565494,125.121987 592.141682,124.537687 C590.041795,122.975321 589.401585,121.336742 590.3619,119.228183 C591.539885,116.586134 592.794696,113.956786 593.755011,111.238524 C594.740933,108.444048 596.62315,107.402471 599.46568,107.148427 C603.281329,106.780065 607.032958,106.030637 610.95104,105.192294 C610.067551,101.661093 606.687244,102.359712 604.395294,100.352771 C605.073916,97.2661453 603.921539,93.6587313 605.022699,90.3561691 C608.96639,88.2984189 610.938236,91.994748 614.228913,92.7695799 C616.57208,91.1437032 619.10731,89.403507 621.629736,87.6125021 C622.820526,86.7614573 623.243064,85.4785389 623.217456,84.0558967 C623.179043,82.9635108 623.025393,81.8584227 622.935764,80.6644195 C624.203379,81.02008 625.227714,81.2995276 626.713,81.7186989 C625.957553,76.8918773 627.545273,73.7798476 631.220076,70.9726698 C634.331494,68.5846633 635.086942,61.268218 632.167586,58.130784 L632.167586,58.130784 Z" id="Fill-8"></path>
            <path d="M286.508757,169.868274 C284.861357,170.674274 283.453871,171.376274 282.062378,172.065274 C282.174337,172.520274 282.206325,172.936274 282.366267,173.261274 C282.814104,174.015274 283.293929,174.886274 282.238314,175.315274 C281.566559,175.575274 280.303019,175.445274 279.679247,175.068274 C277.951876,174.015274 276.496407,172.689274 274.833013,171.545274 C273.953334,170.947274 272.129999,171.688274 272.034034,172.650274 C271.970057,173.417274 272.002046,174.210274 272.082016,174.977274 C272.4019,178.552274 273.953334,179.553274 278.031847,178.981274 C281.358634,178.513274 284.685422,178.006274 288.012209,177.694274 C291.291013,177.395274 294.585812,177.356274 297.720669,177.174274 C298.37643,175.367274 297.880611,174.015274 296.201223,173.326274 C293.034378,172.026274 289.691597,170.986274 286.508757,169.868274" id="Fill-9"></path>
            <path d="M316.2052,172.288542 C315.914,172.144697 315.7164,171.749123 315.4668,171.461433 C315.758,171.413484 316.07,171.257652 316.3196,171.317587 C316.5484,171.377523 316.7356,171.6772 316.9332,171.880981 C316.694,172.024826 316.3612,172.360465 316.2052,172.288542 Z M315.18762,169 C314.416258,169.215768 313.413488,169.383587 312.509893,169.803136 C311.374889,170.306594 310.834936,171.876904 311.044305,173.555098 C311.209597,174.861692 312.058095,175.305215 313.138001,175.508995 C315.253736,175.916557 317.380491,176.432002 319.507245,176.851551 C320.322685,177.007383 321.182202,177.055331 321.997642,176.923473 C323.881968,176.635783 324.598232,174.370221 323.44119,172.799911 C321.358513,170.006916 318.504475,169.215768 315.18762,169 L315.18762,169 Z" id="Fill-10"></path>
            <path d="M30.1602655,66.548 C28.5569279,67.08 27.3383914,67.486 26.1091659,67.878 C25.7350538,70.762 26.2908775,73.17 28.2683272,75.452 C28.7065728,74.164 29.0165514,73.24 29.3372189,72.316 C30.4488663,72.414 31.5498247,72.68 32.6400943,72.596 C33.6020968,72.554 34.5640994,71.91 35.5047241,71.966 C36.5629269,72.008 37.6104408,72.54 39,72.974 C38.9144887,71.42 38.8503552,70.272 38.743466,68.48 C35.3657682,69.474 32.3408046,69.292 30.1602655,66.548" id="Fill-11"></path>
            <path d="M238.876448,159.747827 C236.705598,159.188827 234.735521,157.784827 232,159.708827 C233.468147,163.179827 236.442085,163.309827 239.052124,164.271827 C241.022201,162.659827 243.243243,161.658827 245,159.812827 C242.628378,157.810827 240.645753,160.215827 238.876448,159.747827" id="Fill-12"></path>
            <path d="M526.297926,159.403862 C525.062926,159.000862 523.606926,158.909862 522.319926,159.143862 C520.759926,159.442862 519.524926,160.456862 518.900926,162.848862 C520.278926,163.251862 521.370926,163.706862 522.501926,163.849862 C523.645926,164.018862 524.841926,164.044862 525.972926,163.823862 C527.181926,163.615862 528.260926,162.705862 528.078926,161.418862 C527.935926,160.651862 527.064926,159.637862 526.297926,159.403862" id="Fill-13"></path>
            <path d="M245,172.285569 C248.533871,172.948569 252.248387,170.933569 255.522581,172.844569 C256.527419,174.820569 254.641935,177.160569 257.024194,178.642569 C257.317742,177.979569 257.667742,177.368569 257.859677,176.718569 C258.108065,175.782569 258.187097,174.807569 258.401613,173.884569 C258.559677,173.182569 258.796774,172.506569 259,171.817569 C254.066129,169.659569 249.493548,169.958569 245,172.285569" id="Fill-14"></path>
            <path d="M238.461,174.5455 C238.513,174.5195 238.578,174.5065 238.63,174.4675 C238.552,174.4545 238.461,174.4935 238.37,174.4545 L238.461,174.5455" id="Fill-15"></path>
            <path d="M303.152926,158.191595 C302.736926,159.452595 302.125926,160.687595 302.021926,161.961595 C301.969926,162.754595 302.554926,163.859595 303.191926,164.340595 C304.205926,165.133595 305.440926,164.873595 306.324926,163.898595 C307.273926,162.871595 307.130926,161.623595 306.298926,160.713595 C305.414926,159.712595 304.218926,159.010595 303.152926,158.191595" id="Fill-16"></path>
            <path d="M290.972,161.539 L290.986,161.552 C291,161.526 291.014,161.487 291.028,161.448 L290.972,161.539" id="Fill-17"></path>
            <path d="M74.6979486,70.359005 C73.6199486,69.771005 72.5979486,69.043005 71.4639486,68.637005 C70.2039486,68.175005 68.9439486,68.581005 68.1319486,69.673005 C67.2079486,70.905005 66.7879486,72.249005 68.3139486,73.551005 C70.4279486,72.473005 72.5559486,71.423005 74.6979486,70.359005" id="Fill-18"></path>
            <path d="M196.4115,175.792187 C200.1815,176.143187 202.5605,176.390187 204.5885,174.271187 C201.7025,171.983187 199.5185,172.867187 196.4115,175.792187" id="Fill-19"></path>
            <path d="M225.742029,173.138611 C224.754029,172.761611 223.662029,172.995611 223.545029,174.243611 C223.493029,174.841611 224.117029,176.024611 224.442029,176.024611 C225.248029,176.050611 226.080029,175.517611 227.458029,175.010611 C226.639029,174.087611 226.301029,173.346611 225.742029,173.138611" id="Fill-20"></path>
            <path d="M277.267989,173.548415 C276.811989,173.639415 276.379989,174.003415 275.707989,174.341415 C276.259989,174.835415 276.595989,175.355415 277.015989,175.433415 C278.167989,175.641415 279.499989,176.226415 280.267989,174.588415 C280.327989,174.458415 280.267989,174.185415 280.171989,174.042415 C279.367989,172.885415 278.287989,173.366415 277.267989,173.548415" id="Fill-21"></path>
            <path d="M302.199422,173.140106 C301.978422,173.361106 301.809422,173.933106 301.952422,174.141106 C302.901422,175.597106 303.993422,176.871106 307.100422,175.727106 C305.267422,174.388106 304.279422,173.582106 303.187422,172.880106 C302.979422,172.737106 302.407422,172.932106 302.199422,173.140106" id="Fill-22"></path>
            <path d="M60.1455,59.0225996 C59.6515,57.7355996 59.1835,56.5005996 58.6895,55.2785996 C57.4545,56.3445996 56.2065,57.3975996 54.8545,58.5805996 C56.5835,59.5295996 58.0915,60.3615996 60.1455,59.0225996" id="Fill-23"></path>
            <path d="M57.448,57.539 C57.474,57.513 57.513,57.5 57.526,57.461 L57.552,57.461 C57.552,57.461 57.552,57.461 57.539,57.461 C57.513,57.474 57.474,57.5 57.448,57.513 C57.448,57.513 57.448,57.526 57.448,57.539" id="Fill-24"></path>
            <path d="M266.448,161.513 C266.5,161.513 266.526,161.539 266.552,161.552 C266.552,161.5 266.526,161.474 266.526,161.448 L266.448,161.513" id="Fill-25"></path>
            <path d="M266.4805,174.5065 C266.4805,174.5065 266.4805,174.5325 266.4675,174.5455 C266.5065,174.5195 266.5325,174.4935 266.5455,174.4675 L266.5455,174.4545 C266.5325,174.4545 266.4935,174.4545 266.4545,174.4545 C266.4545,174.4805 266.4805,174.4805 266.4805,174.5065" id="Fill-26"></path>
            <path d="M267.332,173.8435 C266.071,173.4665 264.823,173.1155 263.549,172.7645 C263.744,174.6625 264.771,175.8195 266.708,176.0535 C267.618,176.1835 268.541,176.1835 269.451,176.2355 C269.256,174.9875 268.528,174.1815 267.332,173.8435" id="Fill-27"></path>
            <path d="M353.716108,172.017 C354.639108,173.577 355.562108,175.15 356.641108,176.983 C357.837108,173.369 357.629108,173.005 353.716108,172.017" id="Fill-28"></path>
            <path d="M19.5845,56.2803565 C19.1295,56.3193565 18.7655,56.8913565 18.3365,57.2293565 C18.6745,57.6063565 19.0125,57.9703565 19.7275,58.7243565 C20.1435,58.0613565 20.6375,57.6063565 20.6635,57.1253565 C20.6635,56.8393565 19.9225,56.2153565 19.5845,56.2803565" id="Fill-29"></path>
            <path d="M5.10707032,44.7193063 C5.01607032,45.0183063 5.62707032,45.5253063 5.93907032,45.9283063 C6.52407032,45.3823063 7.09607032,44.8363063 7.90207032,44.0823063 C7.09607032,43.5623063 6.40707032,42.9903063 6.30307032,43.0813063 C5.79607032,43.5363063 5.28907032,44.0953063 5.10707032,44.7193063" id="Fill-30"></path>
            <path d="M585.5045,161.998513 C586.0375,162.115513 586.6095,162.414513 587.0905,162.323513 C587.5845,162.206513 588.0135,161.725513 589.4955,160.659513 C587.5975,160.750513 586.9605,160.633513 586.4665,160.854513 C586.0635,161.036513 585.8165,161.595513 585.5045,161.998513" id="Fill-31"></path>
            <path d="M288.839578,161.497183 C288.783578,161.588183 288.853578,161.939183 289.007578,162.017183 C290.729578,163.031183 291.849578,161.653183 293.179578,161.068183 C291.709578,160.990183 290.113578,159.872183 288.839578,161.497183" id="Fill-32"></path>
            <path d="M290.993,161.5455 C291.007,161.5455 291.063,161.4545 291.063,161.4545 C291.007,161.4805 290.979,161.5195 290.937,161.5325 C290.965,161.5325 290.979,161.5455 290.993,161.5455" id="Fill-33"></path>
            <path d="M237.1025,173.905837 C237.9735,174.399837 238.8185,174.880837 239.8975,175.478837 C239.8585,173.502837 238.9355,173.112837 237.1025,173.905837" id="Fill-34"></path>
            <path d="M328.303776,173.859459 C328.433776,175.081459 329.200776,175.445459 330.240776,175.289459 C330.435776,175.263459 330.708776,174.587459 330.695776,174.561459 C329.993776,174.080459 329.330776,173.326459 328.303776,173.859459" id="Fill-35"></path>
            <path d="M71.147,71.007 C71.091,70.993 71.021,70.979 70.965,70.965 C70.923,70.979 70.895,71.007 70.853,71.021 C70.867,71.021 70.881,71.035 70.895,71.035 C70.979,71.035 71.063,71.021 71.147,71.007" id="Fill-36"></path>
            <path d="M86.5721369,71.0475756 C86.6111369,70.7395756 86.2211369,70.0955756 86.0781369,70.1235756 C84.8561369,70.2775756 83.6471369,70.5435756 82.4251369,70.7815756 C83.5951369,71.1455756 84.7781369,71.5795756 85.9481369,71.8735756 C86.1171369,71.9295756 86.5591369,71.3415756 86.5721369,71.0475756" id="Fill-37"></path>
            <path d="M550.614562,175.813 C550.575562,175.488 550.705562,174.981 550.510562,174.825 C549.847562,174.227 549.106562,173.72 548.378562,173.187 C548.599562,174.019 548.755562,174.89 549.145562,175.644 C549.262562,175.891 550.094562,175.761 550.614562,175.813" id="Fill-38"></path>
            <path d="M174.2725,174.5065 C174.2985,174.5195 174.3115,174.5195 174.3245,174.5585 C174.4545,174.5325 174.5975,174.5195 174.7275,174.5065 C174.6105,174.4805 174.4545,174.4675 174.3375,174.4415 C174.3115,174.4675 174.2985,174.4805 174.2725,174.5065" id="Fill-39"></path>
            <path d="M173.674475,173.933397 C173.427475,174.193397 173.648475,174.908397 173.648475,175.415397 C174.142475,175.207397 174.636475,175.038397 175.117475,174.804397 C175.260475,174.726397 175.338475,174.570397 175.442475,174.427397 C174.974475,173.816397 174.441475,173.166397 173.674475,173.933397" id="Fill-40"></path>
            <path d="M82.8564276,55.745 C83.2334276,57.578 84.2214276,58.839 86.1194276,59.255 C86.3534276,56.863 84.8584276,56.07 82.8564276,55.745" id="Fill-41"></path>
            <path d="M328.458595,174.383 C328.679595,174.799 329.121595,175.111 329.485595,175.488 C329.784595,175.085 330.070595,174.695 330.551595,174.032 C329.849595,173.785 329.407595,173.525 328.939595,173.512 C328.770595,173.512 328.380595,174.188 328.458595,174.383" id="Fill-42"></path>
            <path d="M212.4275,174.202683 C212.7785,174.553683 213.1035,174.969683 213.5455,175.229683 C213.6885,175.307683 214.0915,174.969683 214.5725,174.748683 C214.0915,174.371683 213.7405,173.968683 213.2985,173.773683 C213.1035,173.682683 212.7265,174.033683 212.4275,174.202683" id="Fill-43"></path>
            <path d="M380.611761,161.331 C380.923761,161.747 381.339761,162.085 381.755761,162.475 C382.041761,162.059 382.431761,161.552 382.392761,161.5 C382.015761,161.136 381.547761,160.837 381.105761,160.525 C380.936761,160.798 380.546761,161.227 380.611761,161.331" id="Fill-44"></path>
            <path d="M212.908642,174.747 C212.947642,174.942 213.441642,175.046 213.740642,175.189 C213.870642,174.877 214.000642,174.552 214.104642,174.24 C213.818642,174.097 213.519642,173.954 213.233642,173.811 C213.116642,174.136 212.830642,174.487 212.908642,174.747" id="Fill-45"></path>
            <path d="M213.9067,161.15562 C213.3087,160.71362 212.6847,160.23262 212.0607,161.10362 C211.9567,161.23362 211.9047,161.45462 211.9567,161.62362 C212.2557,162.59862 212.9967,162.42962 213.7117,162.22162 C214.0497,162.10462 214.3747,161.92262 214.7127,161.76662 L214.7907,161.81862 L215.0637,161.74062 L214.7127,161.76662 C214.4397,161.55862 214.1667,161.36362 213.9067,161.15562" id="Fill-46"></path>
            <path d="M561.88269,174.23525 C561.94769,174.52125 562.12969,174.79425 562.27269,175.06725 C562.55869,174.88525 562.84469,174.67725 563.11769,174.46925 C562.84469,174.28725 562.58469,174.06625 562.29869,173.93625 C562.19469,173.89725 561.86969,174.19625 561.88269,174.23525" id="Fill-47"></path>
            <path d="M224.6745,174.806139 C224.8175,174.910139 224.9345,175.001139 225.1945,175.209139 C225.5455,174.936139 225.9485,174.637139 226.3255,174.351139 C226.1305,174.143139 225.7795,173.766139 225.7405,173.792139 C225.3505,174.091139 225.0255,174.455139 224.6745,174.806139" id="Fill-48"></path>
            <path d="M329.4675,174.5455 C329.4935,174.5065 329.5455,174.4935 329.5845,174.4545 C329.5325,174.4545 329.4675,174.4805 329.4155,174.4935 L329.4675,174.5455" id="Fill-49"></path>
            <path d="M327.5955,162.135004 C328.5445,161.940004 329.5585,161.745004 331.4045,161.381004 C329.0775,160.341004 328.2585,161.017004 327.5955,162.135004" id="Fill-50"></path>
            <path d="M612.419,96.552 C612.419,96.773 612.825,97.007 613.021,97.241 C613.245,96.968 613.581,96.721 613.581,96.474 C613.581,96.227 613.203,95.993 612.979,95.759 C612.797,96.032 612.433,96.279 612.419,96.552" id="Fill-51"></path>
            <path d="M265.9605,174.733046 C265.9605,174.811046 266.2595,175.058046 266.3245,175.032046 C266.5715,174.902046 266.8185,174.707046 267.0395,174.525046 C266.8185,174.356046 266.5975,174.148046 266.3765,173.966046 C266.2335,174.239046 266.0775,174.473046 265.9605,174.733046" id="Fill-52"></path>
            <path d="M496.8175,174.5585 C496.9605,174.7015 497.0515,175.0005 497.1555,175.0005 C497.5195,174.9875 497.8575,174.8705 498.1825,174.7925 C498.0265,174.5325 497.8445,174.2725 497.6625,173.9995 C497.3895,174.1815 497.1035,174.3765 496.8175,174.5585" id="Fill-53"></path>
            <path d="M471.587241,174.24 C471.685241,174.513 471.853241,174.773 471.993241,175.02 C472.147241,174.942 472.273241,174.838 472.413241,174.747 C472.273241,174.5 472.161241,174.24 472.007241,173.98 C471.867241,174.071 471.573241,174.201 471.587241,174.24" id="Fill-54"></path>
            <path d="M187.3895,161.754796 C187.4935,161.819796 187.6885,161.728796 187.8445,161.728796 C187.8575,161.572796 187.8575,161.390796 187.8575,161.221796 C187.6235,161.260796 187.3765,161.299796 187.1425,161.325796 C187.2205,161.481796 187.2595,161.676796 187.3895,161.754796" id="Fill-55"></path>
            <path d="M254.506,162.44274 C252.826,161.77974 251.174,161.10374 249.494,160.42774 C250.46,162.61174 252.364,162.76774 254.506,162.44274" id="Fill-56"></path>
            <path d="M251.916,161.5 C251.972,161.526 252.028,161.539 252.084,161.578 C252.056,161.5 252.028,161.487 252,161.422 L251.916,161.5" id="Fill-57"></path>
            <path d="M266.5195,161.5325 L266.5975,161.4675 C266.5195,161.4675 266.4805,161.4675 266.4025,161.4675 C266.4545,161.4935 266.4805,161.5065 266.5195,161.5325" id="Fill-58"></path>
            <path d="M341.7655,161.222673 C341.9345,161.495673 342.0385,161.898673 342.2725,161.976673 C342.5455,162.041673 342.9095,161.859673 343.2345,161.768673 C343.0915,161.508673 342.9615,161.092673 342.7405,161.027673 C342.4545,160.949673 342.0775,161.144673 341.7655,161.222673" id="Fill-59"></path>
            <path d="M355.1165,161.654818 C355.2595,161.745818 355.4025,161.940818 355.5455,161.914818 C355.6755,161.901818 355.7795,161.693818 355.8835,161.550818 C355.8185,161.407818 355.7145,161.238818 355.6365,161.082818 C355.4675,161.277818 355.2725,161.459818 355.1165,161.654818" id="Fill-60"></path>
            <path d="M508.876,174.36855 C509.11,174.57655 509.318,174.87555 509.591,174.95355 C509.695,174.99255 509.955,174.62855 510.124,174.43355 C509.838,174.31655 509.539,174.17355 509.253,174.04355 C509.123,174.16055 509.006,174.26455 508.876,174.36855" id="Fill-61"></path>
            <path d="M160.885045,174.59037 C160.846045,174.61637 161.041045,175.01937 161.132045,175.01937 C161.457045,175.03237 161.782045,174.94137 162.120045,174.90237 C161.951045,174.59037 161.782045,174.27837 161.626045,173.97937 C161.366045,174.16137 161.093045,174.34337 160.885045,174.59037" id="Fill-62"></path>
            <path d="M291.021,160.98033 C290.811,161.24033 290.657,161.48733 290.503,161.76033 C290.657,161.85133 290.951,162.02033 290.965,162.02033 C291.147,161.78633 291.315,161.48733 291.497,161.25333 C291.343,161.14933 291.035,160.96733 291.021,160.98033" id="Fill-63"></path>
            <path d="M84.5975,57.5 C84.5455,57.5 84.4805,57.474 84.4285,57.474 L84.4155,57.461 C84.4155,57.461 84.4025,57.461 84.4025,57.474 C84.4285,57.5 84.4545,57.513 84.4805,57.539 C84.5195,57.526 84.5585,57.513 84.5975,57.5" id="Fill-64"></path>
            <path d="M85.618,57.2393544 C85.319,57.1873544 85.124,57.1223544 84.942,57.1613544 C84.422,57.2913544 83.902,57.4603544 83.382,57.6163544 C84.123,57.6943544 84.942,58.2793544 85.618,57.2393544" id="Fill-65"></path>
            <path d="M19.11,57.6122939 C19.266,57.6772939 19.448,57.8332939 19.565,57.7942939 C19.695,57.7422939 19.786,57.5342939 19.89,57.4042939 C19.734,57.3262939 19.552,57.1572939 19.435,57.2092939 C19.292,57.2612939 19.214,57.4692939 19.11,57.6122939" id="Fill-66"></path>
            <path d="M71.175,70.5837005 C71.035,70.5277005 70.825,70.5977005 70.629,70.6117005 C70.727,70.8917005 70.839,71.1717005 70.937,71.4377005 C71.077,71.3257005 71.231,71.2137005 71.371,71.0877005 C71.315,70.9197005 71.287,70.6817005 71.175,70.5837005" id="Fill-67"></path>
            <polyline id="Fill-68" points="44.3115 71.259 44.7145 71.007 44.2855 70.741 44.3115 71.259"></polyline>
            <polyline id="Fill-69" points="342.2595 174.695 342.7405 174.695 342.5195 174.305 342.2595 174.695"></polyline>
            <path d="M266.18532,175.358 C266.32832,175.293 266.56232,175.228 266.60132,175.111 C266.80932,174.617 266.92632,174.123 267.06932,173.642 C266.69232,173.954 266.27632,174.253 265.95132,174.63 C265.86032,174.747 266.09432,175.111 266.18532,175.358" id="Fill-70"></path>
            <polyline id="Fill-71" points="174.5 174.643 174.669 174.357 174.331 174.357 174.5 174.643"></polyline>
            <polyline id="Fill-72" points="509.526 161.656 509.682 161.344 509.318 161.396 509.526 161.656"></polyline>
            <path d="M84.3635,44.435 C84.4155,44.474 84.4805,44.5 84.5325,44.539 C84.5715,44.552 84.5975,44.552 84.6365,44.565 C84.6235,44.526 84.5975,44.513 84.5845,44.461 C84.5195,44.461 84.4415,44.435 84.3635,44.435" id="Fill-73"></path>
            <path d="M83.876,44.1945 C84.006,44.3635 84.123,44.6105 84.292,44.6885 C84.552,44.7795 84.838,44.7795 85.124,44.8055 C84.89,44.6365 84.656,44.4675 84.383,44.3245 C84.24,44.2335 84.045,44.2335 83.876,44.1945" id="Fill-74"></path>
            <path d="M19.4256111,57.383 C19.4516111,57.461 19.4906111,57.526 19.5166111,57.617 C19.5296111,57.604 19.5556111,57.591 19.5686111,57.591 C19.5816111,57.578 19.5686111,57.552 19.5686111,57.526 C19.5296111,57.474 19.4776111,57.435 19.4256111,57.383" id="Fill-75"></path>
            <path d="M19.0385,56.967 C19.1295,57.136 19.1945,57.318 19.2985,57.435 C19.5195,57.656 19.7405,57.838 19.9615,58.033 C19.8705,57.76 19.8055,57.461 19.6495,57.227 C19.5455,57.084 19.2595,57.045 19.0385,56.967" id="Fill-76"></path>
            <polyline id="Fill-77" points="32.3375 84.066 32.6625 84.15 32.5845 83.85 32.3375 84.066"></polyline>
            <polyline id="Fill-78" points="367.305 174.4805 367.695 174.7405 367.695 174.2595 367.305 174.4805"></polyline>
            <path d="M328.785,174.604309 C328.954,174.630309 329.123,174.695309 329.279,174.695309 C329.591,174.695309 329.903,174.643309 330.215,174.617309 C329.929,174.487309 329.695,174.344309 329.396,174.305309 C329.188,174.292309 328.98,174.487309 328.785,174.604309" id="Fill-79"></path>
            <path d="M329.578,174.526 L329.526,174.474 C329.487,174.474 329.461,174.474 329.422,174.474 C329.474,174.5 329.526,174.513 329.578,174.526" id="Fill-80"></path>
            <polyline id="Fill-81" points="485.3115 161.6755 485.6885 161.6235 485.4545 161.3245 485.3115 161.6755"></polyline>
            <path d="M225.721,161.682 C225.656,161.591 225.617,161.526 225.591,161.435 C225.474,161.383 225.396,161.357 225.279,161.318 C225.37,161.383 225.422,161.422 225.526,161.5 C225.591,161.565 225.643,161.63 225.721,161.682" id="Fill-82"></path>
            <path d="M225.747,161.7535 C225.591,161.5715 225.409,161.4155 225.253,161.2465 C225.279,161.3375 225.292,161.4285 225.357,161.5065 C225.448,161.6105 225.604,161.6625 225.747,161.7535" id="Fill-83"></path>
            <path d="M225.596731,161.583992 L225.609731,161.583992 C225.388731,161.414992 225.258731,161.310992 225.596731,161.583992" id="Fill-84"></path>
            <path d="M225.625726,161.549228 L225.625726,161.549228 C225.365726,161.445228 225.222726,161.393228 225.625726,161.549228" id="Fill-85"></path>
            <path d="M124.2465,174.013231 C124.2465,174.000231 124.1555,174.078231 124.1555,174.078231 C124.4025,174.377231 124.6235,174.676231 124.8445,174.988231 C124.6495,174.650231 124.4415,174.325231 124.2465,174.013231" id="Fill-86"></path>
            <path d="M84.032,110.511 C84.253,110.469 84.552,110.469 84.643,110.315 C84.812,110.077 84.877,109.769 84.968,109.489 C84.747,109.657 84.513,109.853 84.305,110.063 C84.175,110.175 84.123,110.357 84.032,110.511" id="Fill-87"></path>
            <path d="M84.5455,110.112 L84.6105,109.748 L84.4675,110.056 C84.4415,110.112 84.4025,110.182 84.3895,110.252 C84.4415,110.196 84.4935,110.154 84.5455,110.112" id="Fill-88"></path>
            <path d="M161.305,161.8185 C161.422,161.6105 161.565,161.3895 161.695,161.1815 C161.617,161.2465 161.526,161.2855 161.461,161.3635 C161.357,161.4805 161.344,161.6625 161.305,161.8185" id="Fill-89"></path>
            <path d="M355.3635,161.071 C355.3895,161.292 355.4545,161.578 355.5065,161.903 C355.5585,161.903 355.5845,161.916 355.6365,161.929 C355.6105,161.903 355.5845,161.864 355.5585,161.812 C355.4805,161.539 355.4155,161.266 355.3635,161.071" id="Fill-90"></path>
            <polyline id="Fill-91" points="238.682 174.5195 238.591 174.4285 238.318 174.5715 238.682 174.5195"></polyline>
            <polyline id="Fill-92" points="187.175 161.3635 187.448 161.4545 187.825 161.6365 187.526 161.4025 187.175 161.3635"></polyline>
            <path d="M252,161.655269 C252,161.668269 252.084,161.590269 252.084,161.590269 L251.916,161.343269 L252,161.655269" id="Fill-93"></path>
            <polyline id="Fill-94" points="317.4025 161.4415 317.3245 161.5065 317.6755 161.5585 317.4025 161.4415"></polyline>
        </g>
        <rect id="Rectangle" stroke="#303030" stroke-width="10" x="514" y="5.1" width="1" height="351"></rect>
        <path d="M274.75,213.75 C287.25,213.75 298.4375,211.9375 308.3125,208.3125 C318.1875,204.6875 326.5625,200 333.4375,194.25 C340.3125,188.5 345.625,182.0625 349.375,174.9375 C353.125,167.8125 355,160.75 355,153.75 C355,148 353.6875,143.4375 351.0625,140.0625 C348.4375,136.6875 345.25,133.9375 341.5,131.8125 C337.75,129.6875 333.75,128.1875 329.5,127.3125 C325.25,126.4375 321.375,125.625 317.875,124.875 C317.375,124.875 317.125,124.625 317.125,124.125 C317.125,123.375 317.375,123 317.875,123 C327.625,120.75 335.875,117.5625 342.625,113.4375 C349.375,109.3125 354.8125,104.9375 358.9375,100.3125 C363.0625,95.6875 366,91 367.75,86.25 C369.5,81.5 370.375,77.375 370.375,73.875 C370.375,67.125 368.9375,61.75 366.0625,57.75 C363.1875,53.75 358.9375,50.625 353.3125,48.375 C347.6875,46.125 340.5625,44.6875 331.9375,44.0625 C323.3125,43.4375 313.375,43.125 302.125,43.125 C291.625,43.125 282.8125,43.3125 275.6875,43.6875 C268.5625,44.0625 261,44.25 253,44.25 C246.75,44.25 242.8125,44.125 241.1875,43.875 C239.5625,43.625 238.5,43.125 238,42.375 C237.75,41.625 237.375,41.25 236.875,41.25 C235.375,42.75 234.625,44.875 234.625,47.625 C234.625,50.125 236.625,51.375 240.625,51.375 C242.625,51.375 245.375,51.125 248.875,50.625 C252.375,50.125 256.125,49.5625 260.125,48.9375 C264.125,48.3125 268.25,47.75 272.5,47.25 C276.75,46.75 280.625,46.5 284.125,46.5 C285.625,46.5 286.375,46.875 286.375,47.625 C286.375,48.375 286.25,49 286,49.5 C283.75,54.25 281.1875,59.5625 278.3125,65.4375 C275.4375,71.3125 272.4375,77.25 269.3125,83.25 C266.1875,89.25 263.0625,95.0625 259.9375,100.6875 C256.8125,106.3125 254.125,111.375 251.875,115.875 C248.875,121.125 245.5625,127.0625 241.9375,133.6875 C238.3125,140.3125 234.5625,147.1875 230.6875,154.3125 C226.8125,161.4375 222.75,168.6875 218.5,176.0625 C214.25,183.4375 210.125,190.5 206.125,197.25 C205.375,198.5 204.4375,199.9375 203.3125,201.5625 C202.1875,203.1875 200,205.75 196.75,209.25 L196.75,209.25 L199,211.125 C202.5,208.375 206.375,206 210.625,204 C214.875,202 218,201 220,201 C221,201 222.25,201.3125 223.75,201.9375 C225.25,202.5625 226.875,203.375 228.625,204.375 C235.625,207.875 243.25,210.3125 251.5,211.6875 C259.75,213.0625 267.5,213.75 274.75,213.75 Z M266.875,210 C260.125,210 254.5,209.25 250,207.75 C245.5,206.25 241.8125,204.4375 238.9375,202.3125 C236.0625,200.1875 234,198 232.75,195.75 C231.5,193.5 230.875,191.625 230.875,190.125 C231.125,188.125 231.875,185.875 233.125,183.375 C242.625,164.625 252.125,146.125 261.625,127.875 C271.125,109.625 280,93.125 288.25,78.375 C290.75,74.125 293.4375,69.5625 296.3125,64.6875 C299.1875,59.8125 302,55.625 304.75,52.125 C306.5,49.875 308.5625,48.4375 310.9375,47.8125 C313.3125,47.1875 315.875,46.875 318.625,46.875 C322.625,46.875 326.625,47.1875 330.625,47.8125 C334.625,48.4375 338.25,49.625 341.5,51.375 C344.75,53.125 347.375,55.5625 349.375,58.6875 C351.375,61.8125 352.375,65.75 352.375,70.5 C352.375,76.5 351.3125,82.125 349.1875,87.375 C347.0625,92.625 344.25,97.375 340.75,101.625 C337.25,105.875 333.3125,109.5625 328.9375,112.6875 C324.5625,115.8125 320.125,118.375 315.625,120.375 C313.625,121.125 311.1875,121.6875 308.3125,122.0625 C305.4375,122.4375 302.875,122.625 300.625,122.625 C297.875,122.625 295.25,122.25 292.75,121.5 C290.25,120.75 287.625,120.375 284.875,120.375 C283.625,120.375 282.625,120.8125 281.875,121.6875 C281.125,122.5625 280.75,123.625 280.75,124.875 C280.75,126.375 280.9375,127.3125 281.3125,127.6875 C281.6875,128.0625 282.25,128.375 283,128.625 C286.25,128.625 290,128.1875 294.25,127.3125 C298.5,126.4375 302.375,126 305.875,126 C315.875,126.5 323.625,128.6875 329.125,132.5625 C334.625,136.4375 337.375,142 337.375,149.25 C337.375,157.75 335.3125,165.6875 331.1875,173.0625 C327.0625,180.4375 321.625,186.8125 314.875,192.1875 C308.125,197.5625 300.5625,201.8125 292.1875,204.9375 C283.8125,208.0625 275.375,209.75 266.875,210 Z" id="B" fill="#303030" fill-rule="nonzero"></path>
        <path d="M367.75,315.75 C380.25,315.75 391.4375,313.9375 401.3125,310.3125 C411.1875,306.6875 419.5625,302 426.4375,296.25 C433.3125,290.5 438.625,284.0625 442.375,276.9375 C446.125,269.8125 448,262.75 448,255.75 C448,250 446.6875,245.4375 444.0625,242.0625 C441.4375,238.6875 438.25,235.9375 434.5,233.8125 C430.75,231.6875 426.75,230.1875 422.5,229.3125 C418.25,228.4375 414.375,227.625 410.875,226.875 C410.375,226.875 410.125,226.625 410.125,226.125 C410.125,225.375 410.375,225 410.875,225 C420.625,222.75 428.875,219.5625 435.625,215.4375 C442.375,211.3125 447.8125,206.9375 451.9375,202.3125 C456.0625,197.6875 459,193 460.75,188.25 C462.5,183.5 463.375,179.375 463.375,175.875 C463.375,169.125 461.9375,163.75 459.0625,159.75 C456.1875,155.75 451.9375,152.625 446.3125,150.375 C440.6875,148.125 433.5625,146.6875 424.9375,146.0625 C416.3125,145.4375 406.375,145.125 395.125,145.125 C384.625,145.125 375.8125,145.3125 368.6875,145.6875 C361.5625,146.0625 354,146.25 346,146.25 C339.75,146.25 335.8125,146.125 334.1875,145.875 C332.5625,145.625 331.5,145.125 331,144.375 C330.75,143.625 330.375,143.25 329.875,143.25 C328.375,144.75 327.625,146.875 327.625,149.625 C327.625,152.125 329.625,153.375 333.625,153.375 C335.625,153.375 338.375,153.125 341.875,152.625 C345.375,152.125 349.125,151.5625 353.125,150.9375 C357.125,150.3125 361.25,149.75 365.5,149.25 C369.75,148.75 373.625,148.5 377.125,148.5 C378.625,148.5 379.375,148.875 379.375,149.625 C379.375,150.375 379.25,151 379,151.5 C376.75,156.25 374.1875,161.5625 371.3125,167.4375 C368.4375,173.3125 365.4375,179.25 362.3125,185.25 C359.1875,191.25 356.0625,197.0625 352.9375,202.6875 C349.8125,208.3125 347.125,213.375 344.875,217.875 C341.875,223.125 338.5625,229.0625 334.9375,235.6875 C331.3125,242.3125 327.5625,249.1875 323.6875,256.3125 C319.8125,263.4375 315.75,270.6875 311.5,278.0625 C307.25,285.4375 303.125,292.5 299.125,299.25 C298.375,300.5 297.4375,301.9375 296.3125,303.5625 C295.1875,305.1875 293,307.75 289.75,311.25 L289.75,311.25 L292,313.125 C295.5,310.375 299.375,308 303.625,306 C307.875,304 311,303 313,303 C314,303 315.25,303.3125 316.75,303.9375 C318.25,304.5625 319.875,305.375 321.625,306.375 C328.625,309.875 336.25,312.3125 344.5,313.6875 C352.75,315.0625 360.5,315.75 367.75,315.75 Z M359.875,312 C353.125,312 347.5,311.25 343,309.75 C338.5,308.25 334.8125,306.4375 331.9375,304.3125 C329.0625,302.1875 327,300 325.75,297.75 C324.5,295.5 323.875,293.625 323.875,292.125 C324.125,290.125 324.875,287.875 326.125,285.375 C335.625,266.625 345.125,248.125 354.625,229.875 C364.125,211.625 373,195.125 381.25,180.375 C383.75,176.125 386.4375,171.5625 389.3125,166.6875 C392.1875,161.8125 395,157.625 397.75,154.125 C399.5,151.875 401.5625,150.4375 403.9375,149.8125 C406.3125,149.1875 408.875,148.875 411.625,148.875 C415.625,148.875 419.625,149.1875 423.625,149.8125 C427.625,150.4375 431.25,151.625 434.5,153.375 C437.75,155.125 440.375,157.5625 442.375,160.6875 C444.375,163.8125 445.375,167.75 445.375,172.5 C445.375,178.5 444.3125,184.125 442.1875,189.375 C440.0625,194.625 437.25,199.375 433.75,203.625 C430.25,207.875 426.3125,211.5625 421.9375,214.6875 C417.5625,217.8125 413.125,220.375 408.625,222.375 C406.625,223.125 404.1875,223.6875 401.3125,224.0625 C398.4375,224.4375 395.875,224.625 393.625,224.625 C390.875,224.625 388.25,224.25 385.75,223.5 C383.25,222.75 380.625,222.375 377.875,222.375 C376.625,222.375 375.625,222.8125 374.875,223.6875 C374.125,224.5625 373.75,225.625 373.75,226.875 C373.75,228.375 373.9375,229.3125 374.3125,229.6875 C374.6875,230.0625 375.25,230.375 376,230.625 C379.25,230.625 383,230.1875 387.25,229.3125 C391.5,228.4375 395.375,228 398.875,228 C408.875,228.5 416.625,230.6875 422.125,234.5625 C427.625,238.4375 430.375,244 430.375,251.25 C430.375,259.75 428.3125,267.6875 424.1875,275.0625 C420.0625,282.4375 414.625,288.8125 407.875,294.1875 C401.125,299.5625 393.5625,303.8125 385.1875,306.9375 C376.8125,310.0625 368.375,311.75 359.875,312 Z" id="B" fill="#303030" fill-rule="nonzero"></path>
    </g>
</svg>